<svg xmlns="http://www.w3.org/2000/svg" version="1.1" xmlns:xlink="http://www.w3.org/1999/xlink" xmlns:svgjs="http://svgjs.dev/svgjs" width="1440" height="544" preserveAspectRatio="none" viewBox="0 0 1440 544"><g mask="url(&quot;#SvgjsMask1564&quot;)" fill="none"><rect width="1440" height="544" x="0" y="0" fill="url(&quot;#SvgjsLinearGradient1565&quot;)"></rect><path d="M106.13 75.83L171.09 113.33L171.09 188.33L106.13 225.83L41.18 188.33L41.18 113.33zM106.13 300.83L171.09 338.33L171.09 413.33L106.13 450.83L41.18 413.33L41.18 338.33zM106.13 525.83L171.09 563.33L171.09 638.33L106.13 675.83L41.18 638.33L41.18 563.33zM301 -36.67L365.95 0.83L365.95 75.83L301 113.33L236.04 75.83L236.04 0.83zM365.95 300.83L430.9 338.33L430.9 413.33L365.95 450.83L301 413.33L301 338.33zM495.86 525.83L560.81 563.33L560.81 638.33L495.86 675.83L430.9 638.33L430.9 563.33zM560.81 -36.67L625.76 0.83L625.76 75.83L560.81 113.33L495.86 75.83L495.86 0.83zM560.81 413.33L625.76 450.83L625.76 525.83L560.81 563.33L495.86 525.83L495.86 450.83zM625.76 525.83L690.72 563.33L690.72 638.33L625.76 675.83L560.81 638.33L560.81 563.33zM690.72 -36.67L755.67 0.83L755.67 75.83L690.72 113.33L625.76 75.83L625.76 0.83zM690.72 188.33L755.67 225.83L755.67 300.83L690.72 338.33L625.76 300.83L625.76 225.83zM820.62 188.33L885.58 225.83L885.58 300.83L820.62 338.33L755.67 300.83L755.67 225.83zM885.58 300.83L950.53 338.33L950.53 413.33L885.58 450.83L820.62 413.33L820.62 338.33zM820.62 413.33L885.58 450.83L885.58 525.83L820.62 563.33L755.67 525.83L755.67 450.83zM1210.35 -36.67L1275.3 0.83L1275.3 75.83L1210.35 113.33L1145.39 75.83L1145.39 0.83zM1275.3 525.83L1340.25 563.33L1340.25 638.33L1275.3 675.83L1210.35 638.33L1210.35 563.33zM1340.26 188.33L1405.21 225.83L1405.21 300.83L1340.26 338.33L1275.3 300.83L1275.3 225.83zM1405.21 300.83L1470.16 338.33L1470.16 413.33L1405.21 450.83L1340.26 413.33L1340.26 338.33zM1470.16 188.33L1535.12 225.83L1535.12 300.83L1470.16 338.33L1405.21 300.83L1405.21 225.83z" stroke="#03305d" stroke-width="2"></path><path d="M98.63 75.83 a7.5 7.5 0 1 0 15 0 a7.5 7.5 0 1 0 -15 0zM163.59 113.33 a7.5 7.5 0 1 0 15 0 a7.5 7.5 0 1 0 -15 0zM163.59 188.33 a7.5 7.5 0 1 0 15 0 a7.5 7.5 0 1 0 -15 0zM98.63 225.83 a7.5 7.5 0 1 0 15 0 a7.5 7.5 0 1 0 -15 0zM33.68 188.33 a7.5 7.5 0 1 0 15 0 a7.5 7.5 0 1 0 -15 0zM33.68 113.33 a7.5 7.5 0 1 0 15 0 a7.5 7.5 0 1 0 -15 0zM98.63 300.83 a7.5 7.5 0 1 0 15 0 a7.5 7.5 0 1 0 -15 0zM163.59 338.33 a7.5 7.5 0 1 0 15 0 a7.5 7.5 0 1 0 -15 0zM163.59 413.33 a7.5 7.5 0 1 0 15 0 a7.5 7.5 0 1 0 -15 0zM98.63 450.83 a7.5 7.5 0 1 0 15 0 a7.5 7.5 0 1 0 -15 0zM33.68 413.33 a7.5 7.5 0 1 0 15 0 a7.5 7.5 0 1 0 -15 0zM33.68 338.33 a7.5 7.5 0 1 0 15 0 a7.5 7.5 0 1 0 -15 0zM98.63 525.83 a7.5 7.5 0 1 0 15 0 a7.5 7.5 0 1 0 -15 0zM163.59 563.33 a7.5 7.5 0 1 0 15 0 a7.5 7.5 0 1 0 -15 0zM163.59 638.33 a7.5 7.5 0 1 0 15 0 a7.5 7.5 0 1 0 -15 0zM98.63 675.83 a7.5 7.5 0 1 0 15 0 a7.5 7.5 0 1 0 -15 0zM33.68 638.33 a7.5 7.5 0 1 0 15 0 a7.5 7.5 0 1 0 -15 0zM33.68 563.33 a7.5 7.5 0 1 0 15 0 a7.5 7.5 0 1 0 -15 0zM293.5 -36.67 a7.5 7.5 0 1 0 15 0 a7.5 7.5 0 1 0 -15 0zM358.45 0.83 a7.5 7.5 0 1 0 15 0 a7.5 7.5 0 1 0 -15 0zM358.45 75.83 a7.5 7.5 0 1 0 15 0 a7.5 7.5 0 1 0 -15 0zM293.5 113.33 a7.5 7.5 0 1 0 15 0 a7.5 7.5 0 1 0 -15 0zM228.54 75.83 a7.5 7.5 0 1 0 15 0 a7.5 7.5 0 1 0 -15 0zM228.54 0.83 a7.5 7.5 0 1 0 15 0 a7.5 7.5 0 1 0 -15 0zM358.45 300.83 a7.5 7.5 0 1 0 15 0 a7.5 7.5 0 1 0 -15 0zM423.4 338.33 a7.5 7.5 0 1 0 15 0 a7.5 7.5 0 1 0 -15 0zM423.4 413.33 a7.5 7.5 0 1 0 15 0 a7.5 7.5 0 1 0 -15 0zM358.45 450.83 a7.5 7.5 0 1 0 15 0 a7.5 7.5 0 1 0 -15 0zM293.5 413.33 a7.5 7.5 0 1 0 15 0 a7.5 7.5 0 1 0 -15 0zM293.5 338.33 a7.5 7.5 0 1 0 15 0 a7.5 7.5 0 1 0 -15 0zM488.36 525.83 a7.5 7.5 0 1 0 15 0 a7.5 7.5 0 1 0 -15 0zM553.31 563.33 a7.5 7.5 0 1 0 15 0 a7.5 7.5 0 1 0 -15 0zM553.31 638.33 a7.5 7.5 0 1 0 15 0 a7.5 7.5 0 1 0 -15 0zM488.36 675.83 a7.5 7.5 0 1 0 15 0 a7.5 7.5 0 1 0 -15 0zM423.4 638.33 a7.5 7.5 0 1 0 15 0 a7.5 7.5 0 1 0 -15 0zM423.4 563.33 a7.5 7.5 0 1 0 15 0 a7.5 7.5 0 1 0 -15 0zM553.31 -36.67 a7.5 7.5 0 1 0 15 0 a7.5 7.5 0 1 0 -15 0zM618.26 0.83 a7.5 7.5 0 1 0 15 0 a7.5 7.5 0 1 0 -15 0zM618.26 75.83 a7.5 7.5 0 1 0 15 0 a7.5 7.5 0 1 0 -15 0zM553.31 113.33 a7.5 7.5 0 1 0 15 0 a7.5 7.5 0 1 0 -15 0zM488.36 75.83 a7.5 7.5 0 1 0 15 0 a7.5 7.5 0 1 0 -15 0zM488.36 0.83 a7.5 7.5 0 1 0 15 0 a7.5 7.5 0 1 0 -15 0zM553.31 413.33 a7.5 7.5 0 1 0 15 0 a7.5 7.5 0 1 0 -15 0zM618.26 450.83 a7.5 7.5 0 1 0 15 0 a7.5 7.5 0 1 0 -15 0zM618.26 525.83 a7.5 7.5 0 1 0 15 0 a7.5 7.5 0 1 0 -15 0zM488.36 450.83 a7.5 7.5 0 1 0 15 0 a7.5 7.5 0 1 0 -15 0zM683.22 563.33 a7.5 7.5 0 1 0 15 0 a7.5 7.5 0 1 0 -15 0zM683.22 638.33 a7.5 7.5 0 1 0 15 0 a7.5 7.5 0 1 0 -15 0zM618.26 675.83 a7.5 7.5 0 1 0 15 0 a7.5 7.5 0 1 0 -15 0zM683.22 -36.67 a7.5 7.5 0 1 0 15 0 a7.5 7.5 0 1 0 -15 0zM748.17 0.83 a7.5 7.5 0 1 0 15 0 a7.5 7.5 0 1 0 -15 0zM748.17 75.83 a7.5 7.5 0 1 0 15 0 a7.5 7.5 0 1 0 -15 0zM683.22 113.33 a7.5 7.5 0 1 0 15 0 a7.5 7.5 0 1 0 -15 0zM683.22 188.33 a7.5 7.5 0 1 0 15 0 a7.5 7.5 0 1 0 -15 0zM748.17 225.83 a7.5 7.5 0 1 0 15 0 a7.5 7.5 0 1 0 -15 0zM748.17 300.83 a7.5 7.5 0 1 0 15 0 a7.5 7.5 0 1 0 -15 0zM683.22 338.33 a7.5 7.5 0 1 0 15 0 a7.5 7.5 0 1 0 -15 0zM618.26 300.83 a7.5 7.5 0 1 0 15 0 a7.5 7.5 0 1 0 -15 0zM618.26 225.83 a7.5 7.5 0 1 0 15 0 a7.5 7.5 0 1 0 -15 0zM813.12 188.33 a7.5 7.5 0 1 0 15 0 a7.5 7.5 0 1 0 -15 0zM878.08 225.83 a7.5 7.5 0 1 0 15 0 a7.5 7.5 0 1 0 -15 0zM878.08 300.83 a7.5 7.5 0 1 0 15 0 a7.5 7.5 0 1 0 -15 0zM813.12 338.33 a7.5 7.5 0 1 0 15 0 a7.5 7.5 0 1 0 -15 0zM943.03 338.33 a7.5 7.5 0 1 0 15 0 a7.5 7.5 0 1 0 -15 0zM943.03 413.33 a7.5 7.5 0 1 0 15 0 a7.5 7.5 0 1 0 -15 0zM878.08 450.83 a7.5 7.5 0 1 0 15 0 a7.5 7.5 0 1 0 -15 0zM813.12 413.33 a7.5 7.5 0 1 0 15 0 a7.5 7.5 0 1 0 -15 0zM878.08 525.83 a7.5 7.5 0 1 0 15 0 a7.5 7.5 0 1 0 -15 0zM813.12 563.33 a7.5 7.5 0 1 0 15 0 a7.5 7.5 0 1 0 -15 0zM748.17 525.83 a7.5 7.5 0 1 0 15 0 a7.5 7.5 0 1 0 -15 0zM748.17 450.83 a7.5 7.5 0 1 0 15 0 a7.5 7.5 0 1 0 -15 0zM1202.85 -36.67 a7.5 7.5 0 1 0 15 0 a7.5 7.5 0 1 0 -15 0zM1267.8 0.83 a7.5 7.5 0 1 0 15 0 a7.5 7.5 0 1 0 -15 0zM1267.8 75.83 a7.5 7.5 0 1 0 15 0 a7.5 7.5 0 1 0 -15 0zM1202.85 113.33 a7.5 7.5 0 1 0 15 0 a7.5 7.5 0 1 0 -15 0zM1137.89 75.83 a7.5 7.5 0 1 0 15 0 a7.5 7.5 0 1 0 -15 0zM1137.89 0.83 a7.5 7.5 0 1 0 15 0 a7.5 7.5 0 1 0 -15 0zM1267.8 525.83 a7.5 7.5 0 1 0 15 0 a7.5 7.5 0 1 0 -15 0zM1332.75 563.33 a7.5 7.5 0 1 0 15 0 a7.5 7.5 0 1 0 -15 0zM1332.75 638.33 a7.5 7.5 0 1 0 15 0 a7.5 7.5 0 1 0 -15 0zM1267.8 675.83 a7.5 7.5 0 1 0 15 0 a7.5 7.5 0 1 0 -15 0zM1202.85 638.33 a7.5 7.5 0 1 0 15 0 a7.5 7.5 0 1 0 -15 0zM1202.85 563.33 a7.5 7.5 0 1 0 15 0 a7.5 7.5 0 1 0 -15 0zM1332.76 188.33 a7.5 7.5 0 1 0 15 0 a7.5 7.5 0 1 0 -15 0zM1397.71 225.83 a7.5 7.5 0 1 0 15 0 a7.5 7.5 0 1 0 -15 0zM1397.71 300.83 a7.5 7.5 0 1 0 15 0 a7.5 7.5 0 1 0 -15 0zM1332.76 338.33 a7.5 7.5 0 1 0 15 0 a7.5 7.5 0 1 0 -15 0zM1267.8 300.83 a7.5 7.5 0 1 0 15 0 a7.5 7.5 0 1 0 -15 0zM1267.8 225.83 a7.5 7.5 0 1 0 15 0 a7.5 7.5 0 1 0 -15 0zM1462.66 338.33 a7.5 7.5 0 1 0 15 0 a7.5 7.5 0 1 0 -15 0zM1462.66 413.33 a7.5 7.5 0 1 0 15 0 a7.5 7.5 0 1 0 -15 0zM1397.71 450.83 a7.5 7.5 0 1 0 15 0 a7.5 7.5 0 1 0 -15 0zM1332.76 413.33 a7.5 7.5 0 1 0 15 0 a7.5 7.5 0 1 0 -15 0zM1462.66 188.33 a7.5 7.5 0 1 0 15 0 a7.5 7.5 0 1 0 -15 0zM1527.62 225.83 a7.5 7.5 0 1 0 15 0 a7.5 7.5 0 1 0 -15 0zM1527.62 300.83 a7.5 7.5 0 1 0 15 0 a7.5 7.5 0 1 0 -15 0z" fill="#03305d"></path><path d="M46.65 -45.97L89.95 -20.97L89.95 29.03L46.65 54.03L3.35 29.03L3.35 -20.97zM46.65 404.03L89.95 429.03L89.95 479.03L46.65 504.03L3.35 479.03L3.35 429.03zM133.25 104.03L176.56 129.03L176.56 179.03L133.25 204.03L89.95 179.03L89.95 129.03zM133.25 254.03L176.56 279.03L176.56 329.03L133.25 354.03L89.95 329.03L89.95 279.03zM219.86 -45.97L263.16 -20.97L263.16 29.03L219.86 54.03L176.56 29.03L176.56 -20.97zM219.86 104.03L263.16 129.03L263.16 179.03L219.86 204.03L176.56 179.03L176.56 129.03zM219.86 254.03L263.16 279.03L263.16 329.03L219.86 354.03L176.56 329.03L176.56 279.03zM306.46 -45.97L349.77 -20.97L349.77 29.03L306.46 54.03L263.16 29.03L263.16 -20.97zM349.77 29.03L393.07 54.03L393.07 104.03L349.77 129.03L306.46 104.03L306.46 54.03zM306.46 104.03L349.77 129.03L349.77 179.03L306.46 204.03L263.16 179.03L263.16 129.03zM349.77 479.03L393.07 504.03L393.07 554.03L349.77 579.03L306.46 554.03L306.46 504.03zM436.37 179.03L479.68 204.03L479.68 254.03L436.37 279.03L393.07 254.03L393.07 204.03zM436.37 479.03L479.68 504.03L479.68 554.03L436.37 579.03L393.07 554.03L393.07 504.03zM479.68 -45.97L522.98 -20.97L522.98 29.03L479.68 54.03L436.37 29.03L436.37 -20.97zM479.68 104.03L522.98 129.03L522.98 179.03L479.68 204.03L436.37 179.03L436.37 129.03zM566.28 104.03L609.58 129.03L609.58 179.03L566.28 204.03L522.98 179.03L522.98 129.03zM609.58 179.03L652.88 204.03L652.88 254.03L609.58 279.03L566.28 254.03L566.28 204.03zM609.58 329.03L652.88 354.03L652.88 404.03L609.58 429.03L566.28 404.03L566.28 354.03zM609.58 479.03L652.88 504.03L652.88 554.03L609.58 579.03L566.28 554.03L566.28 504.03zM652.88 104.03L696.19 129.03L696.19 179.03L652.88 204.03L609.58 179.03L609.58 129.03zM652.88 404.03L696.19 429.03L696.19 479.03L652.88 504.03L609.58 479.03L609.58 429.03zM739.49 -45.97L782.79 -20.97L782.79 29.03L739.49 54.03L696.19 29.03L696.19 -20.97zM782.79 179.03L826.1 204.03L826.1 254.03L782.79 279.03L739.49 254.03L739.49 204.03zM912.7 104.03L956 129.03L956 179.03L912.7 204.03L869.4 179.03L869.4 129.03zM912.7 254.03L956 279.03L956 329.03L912.7 354.03L869.4 329.03L869.4 279.03zM956 329.03L999.31 354.03L999.31 404.03L956 429.03L912.7 404.03L912.7 354.03zM912.7 404.03L956 429.03L956 479.03L912.7 504.03L869.4 479.03L869.4 429.03zM999.31 254.03L1042.61 279.03L1042.61 329.03L999.31 354.03L956 329.03L956 279.03zM1215.82 179.03L1259.12 204.03L1259.12 254.03L1215.82 279.03L1172.52 254.03L1172.52 204.03zM1172.52 404.03L1215.82 429.03L1215.82 479.03L1172.52 504.03L1129.21 479.03L1129.21 429.03zM1215.82 479.03L1259.12 504.03L1259.12 554.03L1215.82 579.03L1172.52 554.03L1172.52 504.03zM1259.12 -45.97L1302.42 -20.97L1302.42 29.03L1259.12 54.03L1215.82 29.03L1215.82 -20.97zM1302.42 29.03L1345.73 54.03L1345.73 104.03L1302.42 129.03L1259.12 104.03L1259.12 54.03zM1302.42 329.03L1345.73 354.03L1345.73 404.03L1302.42 429.03L1259.12 404.03L1259.12 354.03zM1302.42 479.03L1345.73 504.03L1345.73 554.03L1302.42 579.03L1259.12 554.03L1259.12 504.03zM1389.03 179.03L1432.33 204.03L1432.33 254.03L1389.03 279.03L1345.73 254.03L1345.73 204.03zM1389.03 329.03L1432.33 354.03L1432.33 404.03L1389.03 429.03L1345.73 404.03L1345.73 354.03zM1389.03 479.03L1432.33 504.03L1432.33 554.03L1389.03 579.03L1345.73 554.03L1345.73 504.03zM1432.33 104.03L1475.63 129.03L1475.63 179.03L1432.33 204.03L1389.03 179.03L1389.03 129.03zM1475.63 329.03L1518.94 354.03L1518.94 404.03L1475.63 429.03L1432.33 404.03L1432.33 354.03zM1432.33 404.03L1475.63 429.03L1475.63 479.03L1432.33 504.03L1389.03 479.03L1389.03 429.03z" stroke="rgba(6, 80, 156, 0.93)" stroke-width="2"></path></g><defs><mask id="SvgjsMask1564"><rect width="1440" height="544" fill="#ffffff"></rect></mask><linearGradient x1="50%" y1="100%" x2="50%" y2="0%" gradientUnits="userSpaceOnUse" id="SvgjsLinearGradient1565"><stop stop-color="#0e2a47" offset="0"></stop><stop stop-color="rgba(3, 106, 239, 1)" offset="0.92"></stop><stop stop-color="rgba(3, 106, 239, 1)" offset="0.93"></stop><stop stop-color="rgba(3, 106, 239, 1)" offset="0.96"></stop><stop stop-color="rgba(3, 106, 239, 1)" offset="0.97"></stop><stop stop-color="rgba(3, 106, 239, 1)" offset="1"></stop></linearGradient></defs></svg>